<svg xmlns="http://www.w3.org/2000/svg"
 xmlns:xlink="http://www.w3.org/1999/xlink"
 width="19px" height="18px"  viewBox="0 0 19 18">
<path fill-rule="evenodd"  fill="#ffffff"
 d="M10.585388,13.774719 C10.585388,15.312477 8.883606,15.839516 7.821289,15.839516 C6.196045,15.839516 3.7682495,15.189285 3.7682495,13.502289 C3.7682495,11.674587 6.510681,11.216942 8.049438,11.216942 C8.170776,11.216942 8.284851,11.216942 8.405884,11.235413 C9.223694,11.859161 10.585388,12.54451 10.585388,13.774719 C10.585388,13.774719 10.585388,13.774719 10.585388,13.774719 ZM9.337952,5.817219 C9.337952,6.766884 8.876526,7.537632 7.899719,7.537632 C6.1173096,7.537632 4.993347,5.684845 4.993347,4.3322983 C4.993347,3.1911201 5.7127075,2.101822 7.1851807,2.101822 C8.627014,2.101822 9.337952,4.501499 9.337952,5.817219 C9.337952,5.817219 9.337952,5.817219 9.337952,5.817219 ZM8.277649,1.4999542 C7.82843,1.4999542 7.2975464,1.5583496 6.6119995,1.6670227 C4.566162,2.0014763 3.1884155,3.5129776 3.1884155,5.3266907 C3.1884155,6.8914604 4.802246,8.198105 6.982849,8.198105 C7.241333,8.198105 7.499878,8.176113 7.678772,8.143021 C7.607361,8.465733 7.5219116,8.691086 7.5219116,9.029381 C7.5219116,9.603386 7.74292,10.115795 7.9781494,10.556576 C5.9349976,10.611446 3.1369019,11.117771 2.34198,12.720329 C2.1478271,13.089264 1.999939,13.493534 1.999939,13.906559 C1.999939,15.92598 4.23468,16.499985 6.6657104,16.499985 C8.135132,16.499985 9.400269,16.270363 10.5946045,15.496841 C11.38031,14.846722 11.888611,14.029537 11.888611,13.01902 C11.888611,10.402744 8.932678,9.880089 8.932678,8.557964 C8.932678,7.2497215 11.186096,7.0939713 11.186096,5.008892 C11.186096,3.8945084 10.72406,2.7462845 9.711975,2.160324 C9.711975,2.160324 10.330383,2.160324 10.330383,2.160324 C10.330383,2.160324 11.839233,1.4999542 11.839233,1.4999542 C11.839233,1.4999542 8.277649,1.4999542 8.277649,1.4999542 C8.277649,1.4999542 8.277649,1.4999542 8.277649,1.4999542 ZM18.0,3.834835 C18.0,3.834835 15.633911,3.834835 15.633911,3.834835 C15.633911,3.834835 15.633911,1.4999542 15.633911,1.4999542 C15.633911,1.4999542 14.364197,1.4999542 14.364197,1.4999542 C14.364197,1.4999542 14.364197,3.834835 14.364197,3.834835 C14.364197,3.834835 11.954529,3.834835 11.954529,3.834835 C11.954529,3.834835 11.954529,5.10849 11.954529,5.10849 C11.954529,5.10849 14.364197,5.10849 14.364197,5.10849 C14.364197,5.10849 14.364197,7.1017647 14.364197,7.1017647 C14.364197,7.1017647 15.633911,7.1017647 15.633911,7.1017647 C15.633911,7.1017647 15.633911,5.10849 15.633911,5.10849 C15.633911,5.10849 18.0,5.10849 18.0,5.10849 C18.0,5.10849 18.0,3.834835 18.0,3.834835 C18.0,3.834835 18.0,3.834835 18.0,3.834835 Z"/>
</svg>