<svg xmlns="http://www.w3.org/2000/svg"
 xmlns:xlink="http://www.w3.org/1999/xlink"
 width="18px" height="16px"  viewBox="0 0 18 16">
<path fill-rule="evenodd"  fill="#ffffff"
 d="M16.499939,3.0436401 C15.949951,3.2977104 15.350159,3.480362 14.731506,3.5514603 C15.369263,3.1453743 15.854736,2.5053978 16.08313,1.743721 C15.492981,2.1194878 14.826599,2.393734 14.131714,2.5359268 C13.570129,1.8960571 12.770569,1.4999008 11.885315,1.4999008 C10.1813965,1.4999008 8.810608,2.9726524 8.810608,4.7804947 C8.810608,5.0343513 8.839233,5.288208 8.88678,5.5319214 C6.3356323,5.3898354 4.060608,4.089916 2.5471191,2.099205 C2.2805176,2.5867424 2.1281738,3.1453743 2.1281738,3.754715 C2.1281738,4.8921585 2.6707764,5.8976517 3.4989014,6.486603 C2.9945068,6.466427 2.5185547,6.313984 2.109192,6.0703773 C2.109192,6.0703773 2.109192,6.110943 2.109192,6.110943 C2.109192,7.705391 3.1657715,9.0257 4.574646,9.330368 C4.317627,9.401466 4.041565,9.4422455 3.765564,9.4422455 C3.5655518,9.4422455 3.375183,9.421856 3.1848755,9.39143 C3.5751343,10.691349 4.7078247,11.635891 6.0596313,11.66642 C5.0029297,12.550007 3.6798096,13.067966 2.2424927,13.067966 C1.9854736,13.067966 1.7474365,13.057823 1.5,13.027401 C2.861206,13.961693 4.479431,14.499939 6.2214355,14.499939 C11.875732,14.499939 14.969421,9.503094 14.969421,5.166401 C14.969421,5.024208 14.969421,4.8819084 14.959961,4.7398224 C15.55957,4.2726746 16.08313,3.693653 16.499939,3.0436401 C16.499939,3.0436401 16.499939,3.0436401 16.499939,3.0436401 Z"/>
</svg>