<svg xmlns="http://www.w3.org/2000/svg"
 xmlns:xlink="http://www.w3.org/1999/xlink"
 width="16px" height="17px"  viewBox="0 0 16 17">
<path fill-rule="evenodd"  fill="#ffffff"
 d="M5.043152,14.0909195 C5.043152,13.036957 4.249634,12.18166 3.2714844,12.18166 C2.293518,12.18166 1.5,13.036957 1.5,14.0909195 C1.5,15.144775 2.293518,15.999962 3.2714844,15.999962 C4.249634,15.999962 5.043152,15.144775 5.043152,14.0909195 C5.043152,14.0909195 5.043152,14.0909195 5.043152,14.0909195 ZM9.767395,15.313759 C9.610535,13.196018 8.75238,11.1973 7.3498535,9.695942 C5.956543,8.184654 4.1019897,7.259968 2.1365967,7.0908737 C2.1365967,7.0908737 2.0905151,7.0908737 2.0905151,7.0908737 C1.9429321,7.0908737 1.7952881,7.15044 1.6937866,7.259968 C1.5645752,7.3791046 1.5,7.5481987 1.5,7.7272224 C1.5,7.7272224 1.5,9.069523 1.5,9.069523 C1.5,9.397675 1.7305908,9.66605 2.0350952,9.695942 C4.849365,9.98428 7.0823364,12.390572 7.3498535,15.42318 C7.3775635,15.751442 7.626709,15.999962 7.9312134,15.999962 C7.9312134,15.999962 9.176758,15.999962 9.176758,15.999962 C9.3428955,15.999962 9.499695,15.930359 9.610535,15.791046 C9.72113,15.661987 9.77655,15.492889 9.767395,15.313759 C9.767395,15.313759 9.767395,15.313759 9.767395,15.313759 ZM14.499023,15.333832 C14.3255005,11.853718 12.969116,8.582306 10.67157,6.1164436 C8.38324,3.640545 5.3476562,2.1790047 2.118164,1.9999809 C2.118164,1.9999809 2.0905151,1.9999809 2.0905151,1.9999809 C1.9429321,1.9999809 1.7952881,2.059658 1.6844482,2.1790047 C1.5645752,2.2981415 1.5,2.457306 1.5,2.6363297 C1.5,2.6363297 1.5,4.0582657 1.5,4.0582657 C1.5,4.3863144 1.7398071,4.6648293 2.0535278,4.6846848 C7.4144287,5.022663 11.686584,9.626446 11.991089,15.403435 C12.00946,15.741409 12.267883,15.999962 12.581543,15.999962 C12.581543,15.999962 13.901001,15.999962 13.901001,15.999962 C14.067078,15.999962 14.214661,15.930359 14.3255005,15.801086 C14.445374,15.671913 14.508545,15.502922 14.499023,15.333832 C14.499023,15.333832 14.499023,15.333832 14.499023,15.333832 Z"/>
</svg>