<svg xmlns="http://www.w3.org/2000/svg"
 xmlns:xlink="http://www.w3.org/1999/xlink"
 width="18px" height="17px"  viewBox="0 0 18 17">
<path fill-rule="evenodd"  fill="#ffffff"
 d="M4.7250977,6.4273033 C4.7250977,6.4273033 1.6832275,6.4273033 1.6832275,6.4273033 C1.6832275,6.4273033 1.6832275,15.999962 1.6832275,15.999962 C1.6832275,15.999962 4.7250977,15.999962 4.7250977,15.999962 C4.7250977,15.999962 4.7250977,6.4273033 4.7250977,6.4273033 C4.7250977,6.4273033 4.7250977,6.4273033 4.7250977,6.4273033 ZM4.938843,3.471344 C4.928711,2.7146873 4.265625,1.9999809 3.2233887,1.9999809 C2.1904907,1.9999809 1.5,2.7146873 1.5,3.6517563 C1.5,4.569393 2.1627808,5.3036346 3.1866455,5.3036346 C3.1866455,5.3036346 3.204895,5.3036346 3.204895,5.3036346 C4.265625,5.3036346 4.9490967,4.569393 4.938843,3.6517563 C4.938843,3.6517563 4.938843,3.471344 4.938843,3.471344 C4.938843,3.471344 4.938843,3.471344 4.938843,3.471344 ZM16.5,10.443096 C16.5,7.6197243 15.00238,6.385456 12.951599,6.385456 C11.139343,6.2050476 10.345154,7.161331 9.907349,7.818283 C9.907349,7.818283 9.927734,7.837391 9.927734,7.837391 C9.927734,7.837391 9.927734,6.584549 9.927734,6.584549 C9.927734,6.584549 6.578125,6.584549 6.578125,6.584549 C6.578125,6.584549 6.6187134,7.3936234 6.578125,15.929718 C6.578125,15.929718 9.927734,15.929718 9.927734,15.929718 C9.927734,15.929718 9.927734,10.588066 9.927734,10.588066 C9.927734,10.298237 9.958313,10.01812 10.039734,9.805576 C10.283997,9.235626 10.833923,8.6464615 11.760376,8.6464615 C12.971924,8.6464615 13.45813,9.525459 13.45813,10.810219 C13.45813,10.810219 13.45813,15.929718 13.45813,15.929718 C13.45813,15.929718 16.5,15.929718 16.5,15.929718 C16.5,15.929718 16.5,10.443096 16.5,10.443096 C16.5,10.443096 16.5,10.443096 16.5,10.443096 Z"/>
</svg>