<svg xmlns="http://www.w3.org/2000/svg"
 xmlns:xlink="http://www.w3.org/1999/xlink"
 width="18px" height="18px"  viewBox="0 0 18 18">
<path fill-rule="evenodd"  fill="#ffffff"
 d="M16.5,9.376648 C16.5,5.134857 12.985962,1.4999542 9.112244,1.4999542 C4.849365,1.4999542 1.5,5.134857 1.5,9.376648 C1.5,12.623611 3.241516,15.079971 6.0564575,16.00338 C6.0369263,15.584373 6.046753,15.079971 6.183838,14.629803 C6.183838,14.629803 6.3308716,14.148884 7.158325,10.500317 C6.9089355,9.995167 6.9089355,9.242672 6.9089355,9.242672 C6.9089355,8.067654 7.5669556,7.1904755 8.3845215,7.1904755 C9.082336,7.1904755 9.419922,7.737789 9.419922,8.387161 C9.419922,9.108807 8.972717,10.191055 8.743469,11.190895 C8.553894,12.036156 9.152222,12.716381 9.828918,12.716381 C10.9557495,12.716381 11.71344,10.788868 11.71344,8.510887 C11.71344,6.8429947 10.832214,5.774517 9.191956,5.774517 C6.869812,5.774517 5.4489136,7.2635994 5.4489136,9.263275 C5.4489136,9.95396 5.6449585,10.4384 5.9487305,10.819717 C6.0859375,10.9949 6.10553,11.056923 6.0564575,11.2631645 C6.017395,11.40728 5.938904,11.757854 5.899719,11.891933 C5.850708,12.097965 5.6939697,12.1702385 5.5272827,12.097965 C4.349243,11.644485 3.793518,10.428154 3.793518,9.0676 C3.793518,6.885269 5.79187,3.912548 9.401428,3.912548 C11.673462,3.912548 14.206421,6.470005 14.206421,8.655109 C14.206421,11.767998 11.978577,14.087395 9.960022,14.087395 C9.291687,14.087395 8.51416,13.623451 8.254944,13.097805 C7.8062134,14.715309 7.7165527,14.979095 7.7165527,14.979095 C7.557007,15.436951 7.2280273,15.894707 6.938904,16.251686 C7.636841,16.414589 8.354675,16.499985 9.112244,16.499985 C12.985962,16.499985 16.5,13.747177 16.5,9.376648 C16.5,9.376648 16.5,9.376648 16.5,9.376648 Z"/>
</svg>