<svg xmlns="http://www.w3.org/2000/svg"
 xmlns:xlink="http://www.w3.org/1999/xlink"
 width="66px" height="65px"  viewBox="0 0 66 65">
<path fill-rule="evenodd"  fill="#cf9d41"
 d="M33.072937,1.062439 C15.752197,1.062439 1.652771,14.697449 1.652771,32.116882 C1.652771,49.670227 15.752197,63.937378 33.072937,63.937378 C50.672363,63.937378 64.87619,49.670227 64.87619,32.116882 C64.87619,14.697449 50.672363,1.062439 33.072937,1.062439 C33.072937,1.062439 33.072937,1.062439 33.072937,1.062439 ZM44.47876,22.02069 C44.932953,21.972168 45.676178,21.753174 46.25421,21.937439 C46.708466,21.958252 47.080048,21.986023 46.543304,22.048584 C46.295593,22.179016 45.92395,22.02069 45.63492,22.062439 C46.0065,22.179016 46.543304,22.412415 46.378143,22.937378 C47.45166,23.546936 46.04779,24.279175 45.345856,24.197815 C45.676178,24.238464 44.64395,24.848694 44.64395,24.807983 C44.048615,25.011353 43.312775,25.011353 43.063873,25.377563 C42.77945,25.825012 43.170563,26.5979 42.637238,26.435242 C42.42389,26.964111 41.60623,26.679382 41.2507,27.248901 C41.641785,27.736938 40.85959,28.587463 40.468506,27.81842 C40.113037,27.98108 40.29077,28.587463 39.93524,28.9375 C40.077454,29.19165 40.113037,29.4469 39.864136,29.617188 C39.93524,29.574585 40.361816,30.0 40.468506,30.042603 C40.3974,30.255249 40.25525,30.425415 40.077454,30.425415 C40.25525,30.978516 39.864136,31.574036 39.54416,31.914368 C39.131226,32.2547 38.0177,32.59503 37.854187,32.680115 C36.873413,33.40338 36.26245,34.466797 37.963135,34.76465 C38.0177,34.76465 38.0177,36.059998 38.072174,36.098328 C38.18112,36.55902 38.453583,37.90271 37.309296,37.403687 C36.764435,37.21161 36.43744,36.13672 36.306213,35.714417 C36.174957,35.253662 36.131195,35.253662 35.78119,34.76465 C35.375,35.368896 35.328094,34.934814 35.070312,34.636963 C34.81244,33.72577 34.43747,33.8006 33.854187,33.57611 C33.072937,33.98761 32.623657,33.875427 32.501038,33.239258 C32.337677,33.538635 32.66449,33.98761 32.623657,34.159607 C32.419373,35.02118 32.051727,34.9375 31.724915,34.354065 C31.19397,33.8006 30.050201,34.97998 29.43747,34.354065 C29.478302,34.354065 29.641754,34.74298 29.764221,34.9375 C29.641754,35.433167 29.358093,35.144775 29.119385,35.30963 C28.840912,35.676025 28.602234,36.059998 28.36139,36.251953 C28.880707,37.21161 28.321075,38.133118 28.36139,39.169678 C28.36139,39.93744 28.880707,41.416504 29.641754,41.881042 C30.0094,42.092224 31.234802,42.176636 31.602448,42.00775 C32.174286,41.754333 32.09256,41.289734 32.296844,40.782898 C32.501038,40.233887 32.746124,39.98047 33.358856,39.93744 C35.117157,39.860657 34.048615,41.33191 33.56247,42.092224 C33.440582,42.641357 33.39969,43.27484 33.318054,43.781677 C33.522247,43.86609 33.951385,43.823975 34.43747,43.823975 C34.43747,43.65497 34.507812,43.443787 34.507812,43.317078 C34.648407,43.73938 35.117157,43.86609 35.25775,43.359375 C35.421844,43.86609 35.912445,44.246277 35.99994,44.837524 C36.087463,45.428833 36.7099,46.06244 35.82495,46.06244 C35.375,46.06244 35.912445,47.01703 35.99994,47.1875 C36.491974,47.869324 37.47278,48.211243 38.56247,47.801086 C38.56247,48.120056 38.39911,49.123108 37.799713,49.214294 C37.25482,49.30542 36.26245,48.34796 36.43744,47.869324 C36.393646,48.02893 36.26245,48.16565 36.131195,48.256836 C35.693695,47.76703 35.234344,47.562378 35.023376,47.153442 C34.976532,47.051147 34.048615,45.555542 34.484314,45.47113 C33.440582,45.72455 32.296844,45.302246 31.765808,45.00653 C30.90799,44.54193 30.78543,43.317078 29.723389,43.486084 C29.00003,43.612793 28.801147,43.908386 27.958405,43.570496 C27.394165,43.359375 26.910614,42.93695 26.346436,42.641357 C25.70163,42.26123 24.573334,41.881042 24.331512,41.036316 C24.089752,40.360596 24.17035,39.59198 23.807648,39.016052 C23.565826,38.632202 22.840485,37.86432 22.358063,37.86432 C22.80014,37.86432 22.066345,36.712585 21.986786,36.59735 C21.695068,36.098328 19.973877,34.722046 20.337036,33.871277 C20.427826,33.743652 19.429138,33.40338 19.247528,33.36078 C19.429138,33.786194 19.474518,34.25415 19.701477,34.636963 C19.928528,35.0625 20.200836,35.407288 20.473236,35.7912 C20.972534,36.4823 21.615509,37.326782 21.56247,38.171448 C20.972534,38.325073 21.154175,37.59558 20.972534,37.288513 C20.654785,36.78943 19.792328,36.78943 19.565338,36.251953 C19.656128,36.2135 19.701477,36.2135 19.792328,36.17517 C19.837677,35.52246 18.70279,34.977417 18.88443,34.466797 C18.24884,33.9989 18.24884,33.10553 17.794891,32.50995 C17.386383,31.956848 16.705444,31.7016 16.115295,31.318787 C15.888336,31.191162 14.254089,29.234253 14.844299,29.106567 C13.936401,29.319336 13.487091,27.12677 13.618591,26.63861 C13.618591,26.63861 13.5278015,26.63861 13.5278015,26.5979 C13.709351,26.109863 13.406586,23.587646 14.11795,23.546936 C13.618591,23.587646 13.487091,22.295837 13.618591,22.041565 C13.709351,21.958252 14.390289,22.645752 14.435699,22.762451 C14.708038,22.587463 14.980438,22.120728 14.889648,21.937439 C14.7534485,21.770813 14.254089,21.625122 13.936401,21.500061 C13.80014,21.458435 12.158752,20.87909 12.11853,20.937378 C12.2795105,20.529053 12.239227,20.120728 11.997711,19.881104 C11.232971,20.704163 11.635468,19.24646 11.232971,19.110474 C11.07193,19.065063 10.910919,18.929077 10.749939,18.74768 C13.084595,14.413452 16.705444,11.290527 21.063324,9.140991 C21.335724,9.100403 21.642029,9.100403 21.854156,9.100403 C22.331543,9.18158 22.67926,9.789917 23.203125,10.154907 C23.283783,9.952209 23.122559,9.627686 23.001678,9.424866 C23.122559,9.100403 23.60611,9.019287 23.888214,8.937439 C24.250916,8.897583 24.77478,8.818054 25.097198,8.97876 C24.855377,8.619202 24.573334,8.300964 24.29123,7.996277 C24.250916,8.029358 24.130035,8.102112 24.089752,8.181641 C23.646484,7.8638916 22.80014,8.300964 22.411102,8.460144 C22.198975,8.619202 22.013306,8.818054 21.801178,8.937439 C21.668549,9.019287 21.58899,9.019287 21.426483,8.97876 C22.278473,8.340759 23.426239,7.8308105 24.731384,7.467041 C24.96875,7.599304 25.206024,7.8308105 25.56247,8.0625 C25.324707,7.8970337 25.324707,8.778381 25.403809,8.937439 C25.403809,8.937439 28.40274,8.937439 28.40274,8.937439 C28.749939,9.343689 28.749939,9.952209 29.218658,10.3172 C29.687347,9.952209 29.010345,9.54657 29.322815,9.18158 C29.427002,9.019287 30.36438,8.818054 30.67685,8.69873 C31.041443,8.499817 30.416473,8.221436 30.260193,8.141907 C29.73944,7.9301147 27.9469,7.8308105 28.697906,7.0700073 C29.062378,6.7765503 30.36438,6.937439 30.781036,7.1030884 C31.381592,7.3476562 31.8125,7.7576904 31.245941,8.130493 C31.562439,8.167847 32.65387,8.503235 32.43744,8.987915 C32.56732,8.764282 32.78369,8.428772 33.129883,8.428772 C33.519318,8.466003 33.6597,9.319824 34.048615,9.577209 C34.671844,10.631653 35.234344,8.503235 35.328094,8.577881 C34.90622,8.316895 35.82495,7.9813232 36.218628,8.093201 C36.71872,8.205017 37.742798,9.114014 36.43744,9.062439 C37.670624,9.545349 37.706665,10.593445 36.087463,10.552124 C35.515594,10.510925 35.140564,9.600586 34.835938,10.345825 C34.625,10.591309 34.53122,11.262024 33.951385,11.664368 C33.154602,12.285828 32.37848,12.242798 31.684113,12.156189 C31.970093,12.199768 31.07135,13.188843 30.989716,13.360779 C30.744598,13.661743 30.581238,14.005798 30.499512,14.349731 C30.417786,14.779724 30.499512,15.252747 30.295319,15.682617 C30.989716,15.467773 31.35736,16.800781 31.07135,16.843689 C31.9292,16.7146 32.623657,16.7146 33.440582,17.014893 C34.484314,17.07605 34.976532,17.323853 35.117157,17.948853 C35.210907,17.695374 35.737457,17.819275 35.99994,17.901917 C36.71872,18.183716 36.859344,18.794373 37.28122,19.310913 C37.634613,20.015503 38.10327,21.125183 38.716248,20.958557 C38.824432,20.87909 39.616882,20.295837 39.329224,19.968506 C39.040802,19.623047 38.716248,18.744507 39.00473,18.256348 C39.293182,17.719482 39.975586,17.572876 40.154938,16.889587 C40.441925,15.766846 39.293182,15.91333 39.293182,15.083557 C39.293182,14.701782 39.760345,14.60083 39.724457,14.196899 C39.724457,13.816406 39.18506,12.99646 39.616882,12.709412 C39.975586,12.46344 41.69751,12.873474 42.020386,13.119446 C42.34326,13.365356 43.347717,13.69342 43.419434,14.0625 C43.419434,14.0625 43.24008,14.0625 43.24008,14.0625 C43.526123,14.291748 44.145813,14.900269 43.27719,15.062439 C43.6597,14.981262 45.180664,15.562439 44.43747,15.937439 C44.68518,15.749878 44.891724,15.874878 45.139435,15.625 C45.428467,15.375 45.593628,14.981262 45.96524,15.25 C46.04779,15.312439 46.501984,14.3324585 46.749695,14.372925 C47.121338,14.413452 47.20395,14.940735 47.36911,15.25 C47.53427,15.812439 47.988403,15.982422 48.153564,16.39038 C48.442657,17.161072 48.318756,17.886414 49.268494,18.158447 C49.557434,18.249084 50.34201,17.750427 50.30072,18.43042 C50.46588,18.249084 50.54843,18.113037 50.54843,18.06781 C50.589752,18.702454 50.837524,19.427734 51.53943,19.337097 C51.53943,19.337097 51.53943,20.237427 51.456818,20.412415 C51.209076,20.937378 50.589752,20.82074 50.21811,20.959473 C50.09424,20.966736 49.103333,21.430786 49.22711,21.56903 C48.69037,21.033081 47.823242,21.033081 47.121338,21.062378 C46.378143,21.200623 45.676178,21.292786 44.974274,21.615051 C44.64395,21.799194 44.145813,21.944397 43.56247,21.992981 C43.455017,22.02069 43.27719,22.762451 43.099457,22.82074 C43.455017,22.704163 43.756897,22.062439 44.47876,22.02069 C44.47876,22.02069 44.47876,22.02069 44.47876,22.02069 ZM37.63629,59.06244 C37.581726,58.83441 37.527252,58.37848 37.527252,58.332947 C37.47278,57.603455 38.39911,57.10199 38.344604,56.41803 C37.74524,56.28125 37.581726,55.779724 37.690765,55.232605 C37.799713,54.45752 38.60623,53.9104 39.131226,53.408875 C39.615265,52.90735 39.721893,51.858765 39.615265,51.220337 C39.43747,50.12616 39.43747,48.98639 39.26242,47.90338 C39.306152,48.16565 39.93524,48.074463 40.04193,48.43927 C40.184143,48.120056 40.25525,47.76703 40.432922,47.52832 C40.575134,47.32379 40.824066,47.255676 41.037384,47.085327 C41.392914,46.880676 42.139465,46.09668 42.56613,46.573853 C42.92166,46.98297 42.032898,47.426086 42.494995,47.801086 C42.637238,47.52832 42.494995,47.119385 42.77945,46.84662 C43.348297,46.233032 44.048615,46.914856 44.932953,47.085327 C45.63492,47.255676 45.88263,47.460266 46.419373,47.835144 C46.25421,47.698853 47.080048,47.460266 47.16266,47.426086 C47.947174,47.289734 48.277496,47.664795 48.81424,48.02893 C49.392273,48.484863 50.30072,48.803894 50.21811,49.71582 C50.63098,49.806946 50.878754,49.943848 51.209076,50.080566 C51.53943,50.26288 51.99359,50.171753 52.241394,50.445312 C48.442657,54.86786 42.992767,57.96826 37.63629,59.06244 C37.63629,59.06244 37.63629,59.06244 37.63629,59.06244 Z"/>
</svg>