<svg xmlns="http://www.w3.org/2000/svg"
 xmlns:xlink="http://www.w3.org/1999/xlink"
 width="62px" height="68px"  viewBox="0 0 62 68">
<path fill-rule="evenodd"  fill="#7da3b7"
 d="M58.808838,14.355103 C58.071167,11.396423 54.162537,1.3578491 50.13208,2.362793 C47.13617,3.1097412 46.59198,5.029663 45.084778,7.341614 C41.292236,13.25061 25.048828,14.349121 18.334534,18.567932 C9.020996,24.365295 1.9729614,34.53888 4.8067627,45.90442 C5.1186523,47.155334 5.5375366,48.3797 6.0545044,49.541504 C6.375366,50.220764 7.7751465,51.88385 7.8552856,52.205383 C8.372131,54.27838 2.0319214,58.934143 2.9587402,62.651123 C3.145813,63.401733 3.4490356,63.553955 3.9214478,64.08154 C5.2943726,65.485535 6.248291,66.42438 8.4953,65.864136 C11.598328,65.090515 11.92041,57.26581 13.703735,56.821228 C15.130371,56.465637 19.115784,57.863525 20.970337,58.008484 C24.492249,58.307312 28.165894,57.998657 31.589905,57.14496 C37.01123,55.793274 42.040344,53.020935 46.24939,49.390076 C54.934998,41.985657 60.26825,32.98755 59.77948,21.30304 C59.674866,18.908447 59.364197,16.582764 58.808838,14.355103 C58.808838,14.355103 58.808838,14.355103 58.808838,14.355103 ZM42.276062,25.856934 C42.58795,27.10785 41.812073,28.402222 40.56372,28.71344 C31.789734,30.901123 26.840698,34.6026 21.837463,42.037903 C20.52655,44.07312 19.38501,46.17987 18.029358,48.188293 C17.672668,48.732727 17.235657,49.10742 16.593628,49.267456 C15.345276,49.578735 14.052551,48.80011 13.740662,47.549133 C13.580261,46.905884 13.7052,46.3432 14.017334,45.771973 C19.983887,34.60376 26.798096,27.290405 39.42395,24.142395 C40.672302,23.831238 41.96411,24.606018 42.276062,25.856934 C42.276062,25.856934 42.276062,25.856934 42.276062,25.856934 Z"/>
</svg>