<svg xmlns="http://www.w3.org/2000/svg"
 xmlns:xlink="http://www.w3.org/1999/xlink"
 width="73px" height="69px"  viewBox="0 0 73 69">
<path fill-rule="evenodd"  fill="#3d5f12"
 d="M34.13275,34.497986 C34.13275,39.809998 29.896729,44.142517 24.703064,44.142517 C19.5094,44.142517 15.273376,39.809998 15.273376,34.497986 C15.273376,29.186035 19.5094,24.85736 24.703064,24.85736 C29.896729,24.85736 34.13275,29.186035 34.13275,34.497986 C34.13275,34.497986 34.13275,34.497986 34.13275,34.497986 ZM61.867188,53.398438 C61.867188,55.880737 59.767517,57.937378 57.152344,57.937378 C54.573914,57.937378 52.4375,55.916138 52.4375,53.398438 C52.4375,50.916138 54.573914,48.85742 57.152344,48.85742 C59.730774,48.85742 61.867188,50.916138 61.867188,53.398438 C61.867188,53.398438 61.867188,53.398438 61.867188,53.398438 ZM61.867188,15.5 C61.867188,18.03888 59.767517,20.142517 57.152344,20.142517 C54.573914,20.142517 52.4375,18.075195 52.4375,15.5 C52.4375,12.960999 54.573914,10.857361 57.152344,10.857361 C59.730774,11.138672 61.867188,13.275085 61.867188,15.853455 C61.867188,15.853455 61.867188,15.5 61.867188,15.5 C61.867188,15.5 61.867188,15.5 61.867188,15.5 ZM48.0,31.3609 C48.0,30.845154 47.65332,30.366394 47.16797,30.255798 C47.16797,30.255798 41.794434,29.40857 41.794434,29.40857 C41.46283,28.377258 41.020874,27.382751 40.541992,26.388184 C41.573425,24.9516 42.678406,23.62555 43.73578,22.189087 C43.87451,21.968018 43.978516,21.74701 43.978516,21.489197 C43.978516,20.457886 39.65802,16.479675 38.700256,15.595642 C38.479248,15.411499 38.221436,15.301025 37.926758,15.301025 C37.668945,15.301025 37.41101,15.374573 37.190002,15.558838 C37.190002,15.558838 32.843506,18.837036 32.843506,18.837036 C31.959534,18.39508 31.038635,17.989868 30.080994,17.695251 C30.080994,17.695251 29.233765,12.059509 29.233765,12.059509 C29.160095,11.543762 28.64441,11.138672 28.128662,11.138672 C28.128662,11.138672 21.277405,11.138672 21.277405,11.138672 C20.761719,11.138672 20.319763,11.506958 20.172424,12.022644 C19.693542,13.827637 19.5094,15.853455 19.325256,17.695251 C18.330627,18.026733 17.40979,18.39508 16.488892,18.873901 C16.488892,18.873901 12.252991,15.558838 12.252991,15.558838 C12.031982,15.411499 11.774048,15.301025 11.47937,15.301025 C10.411194,15.301025 6.2857056,19.757874 5.5490723,20.752502 C5.364807,20.97351 5.2911377,21.231262 5.2911377,21.489197 C5.2911377,21.74701 5.4017334,22.004822 5.5490723,22.225891 C6.727722,23.62555 7.8328247,24.988403 8.864136,26.461792 C8.385315,27.382751 7.9801025,28.303589 7.685486,29.261292 C7.685486,29.261292 1.9760742,30.145264 1.9760742,30.145264 C1.4971924,30.218933 1.1288452,30.771606 1.1288452,31.250366 C1.1288452,31.250366 1.1288452,38.06482 1.1288452,38.06482 C1.1288452,38.580505 1.4971924,39.059265 2.0128784,39.133057 C2.0128784,39.133057 7.6118164,40.01709 7.6118164,40.01709 C7.9432983,41.0484 8.385315,42.042908 8.901001,43.037537 C7.8328247,44.47406 6.727722,45.836975 5.659546,47.236572 C5.512146,47.457703 5.4017334,47.67865 5.4017334,47.936462 C5.4017334,49.002502 9.74823,52.88336 10.705872,53.753906 C10.92688,53.93518 11.184753,54.044067 11.47937,54.044067 C11.737305,54.044067 12.031982,53.971436 12.216064,53.7901 C12.216064,53.7901 16.562561,50.562134 16.562561,50.562134 C17.446655,50.997375 18.367554,51.3963 19.325256,51.686462 C19.325256,51.686462 20.172424,57.23584 20.172424,57.23584 C20.246094,57.74353 20.761719,58.142456 21.277405,58.142456 C21.277405,58.142456 28.128662,58.142456 28.128662,58.142456 C28.64441,58.142456 29.086426,57.779846 29.233765,57.272034 C29.712585,55.494812 29.896729,53.49994 30.080994,51.650146 C31.0755,51.359985 31.996338,50.997375 32.917175,50.525818 C32.917175,50.525818 37.15326,53.7901 37.15326,53.7901 C37.374268,53.93518 37.63202,54.044067 37.926758,54.044067 C38.994934,54.044067 43.120422,49.618958 43.839783,48.636353 C44.013123,48.45215 44.08252,48.194397 44.08252,47.936462 C44.08252,47.641846 43.978516,47.420837 43.839783,47.199768 C42.678406,45.80011 41.573425,44.437256 40.541992,42.963867 C41.020874,42.042908 41.426086,41.12207 41.720764,40.164368 C41.720764,40.164368 47.202576,39.280396 47.202576,39.280396 C47.65332,39.206726 48.0,38.654175 48.0,38.175293 C48.0,38.175293 48.0,31.3609 48.0,31.3609 C48.0,31.3609 48.0,31.3609 48.0,31.3609 ZM71.296875,50.960938 C71.296875,50.41693 66.545105,49.90924 65.80847,49.83667 C65.513794,49.183777 65.14551,48.525818 64.70349,47.936462 C65.03491,47.199768 66.58203,43.516296 66.58203,42.853333 C66.58203,42.779602 66.545105,42.66913 66.43469,42.59546 C65.992676,42.337646 62.05133,40.01709 61.867188,40.01709 C61.867188,40.01709 61.64618,40.0907 61.64618,40.0907 C60.393738,41.343018 59.288757,42.779602 58.257324,44.216125 C58.257324,44.216125 56.04724,44.216125 56.04724,44.216125 C55.678894,43.663635 52.91632,40.01709 52.4375,40.01709 C52.26416,40.01709 48.554626,42.37445 48.13861,42.59546 C48.034668,42.66913 48.0,42.779602 48.0,42.853333 C48.0,43.47943 49.455994,47.199768 49.768005,47.936462 C49.35205,48.525818 49.00531,49.183777 48.727966,49.83667 C48.034668,49.90924 43.56244,50.41693 43.56244,50.960938 C43.56244,50.960938 43.56244,56.03894 43.56244,56.03894 C43.56244,56.582947 48.034668,57.09076 48.727966,57.16327 C49.00531,57.852295 49.35205,58.47406 49.768005,59.063416 C49.455994,59.80011 48.0,63.520447 48.0,64.146545 C48.0,64.220276 48.034668,64.33075 48.13861,64.40442 C48.554626,64.66235 52.26416,67.019775 52.4375,67.019775 C52.91632,67.019775 55.678894,63.336304 56.04724,62.783752 C56.04724,62.783752 58.257324,62.783752 58.257324,62.783752 C58.62567,63.336304 61.388245,67.019775 61.867188,67.019775 C62.05133,67.019775 65.992676,64.66235 66.43469,64.40442 C66.545105,64.33075 66.58203,64.25714 66.58203,64.146545 C66.58203,63.278503 65.03491,59.59503 64.70349,58.858337 C65.14551,58.268982 65.513794,57.653748 65.80847,56.97992 C66.545105,56.909058 71.296875,56.412537 71.296875,55.880737 C71.296875,55.880737 71.296875,50.960938 71.296875,50.960938 C71.296875,50.960938 71.296875,50.960938 71.296875,50.960938 ZM71.296875,12.960999 C71.296875,12.416992 66.545105,11.90918 65.80847,11.83667 C65.513794,11.183777 65.14551,10.525757 64.70349,9.936523 C65.03491,8.210571 66.58203,4.5270996 66.58203,3.8640137 C66.58203,3.7904053 66.545105,3.6798706 66.43469,3.6062012 C65.992676,3.3484497 62.05133,1.027832 61.867188,1.027832 C61.867188,1.027832 61.64618,1.1015015 61.64618,1.1015015 C60.393738,2.3539429 59.288757,3.7904053 58.257324,5.227051 C58.257324,5.227051 56.04724,5.227051 56.04724,5.227051 C55.678894,4.6744995 52.91632,1.027832 52.4375,1.027832 C52.26416,1.027832 48.554626,3.385254 48.13861,3.6062012 C48.034668,3.6798706 48.0,3.7904053 48.0,3.8640137 C48.0,4.4903564 49.455994,8.210571 49.768005,8.947266 C49.35205,9.536621 49.00531,10.199646 48.727966,10.862671 C48.034668,10.93634 43.56244,11.452087 43.56244,12.004639 C43.56244,12.004639 43.56244,17.161499 43.56244,17.161499 C43.56244,17.713928 48.034668,18.229614 48.727966,18.303284 C49.00531,19.003174 49.35205,19.629395 49.768005,20.218628 C49.455994,20.955322 48.0,24.67572 48.0,25.30188 C48.0,25.375488 48.034668,25.486084 48.13861,25.559753 C48.554626,25.817566 52.26416,28.174988 52.4375,28.174988 C52.91632,28.174988 55.678894,24.491516 56.04724,23.939026 C56.04724,23.939026 58.257324,23.939026 58.257324,23.939026 C58.62567,24.491516 61.388245,28.174988 61.867188,28.174988 C62.05133,29.300964 65.992676,26.943604 66.43469,26.685669 C66.545105,26.612 66.58203,26.53833 66.58203,26.427734 C66.58203,25.764832 65.03491,22.08136 64.70349,21.344666 C65.14551,20.474121 65.513794,19.852356 65.80847,19.163208 C66.545105,19.090698 71.296875,18.582886 71.296875,18.03888 C71.296875,18.03888 71.296875,12.960999 71.296875,12.960999 C71.296875,12.960999 71.296875,12.960999 71.296875,12.960999 Z"/>
</svg>