<svg xmlns="http://www.w3.org/2000/svg"
 xmlns:xlink="http://www.w3.org/1999/xlink"
 width="72px" height="66px"  viewBox="0 0 72 66">
<path fill-rule="evenodd"  fill="#c45f4b"
 d="M22.666824,33.0 C20.806213,30.3266 19.768555,27.118591 19.768555,23.874939 C19.768555,23.09076 19.840073,22.30658 19.947433,21.52246 C18.408798,22.057068 16.834396,22.342224 15.188477,22.342224 C10.35788,22.342224 6.6365814,19.3125 5.8851395,19.3125 C1.3410645,19.3125 1.4482346,29.007812 1.4482346,31.89502 C1.4482346,35.851562 4.811722,37.56244 8.389908,37.56244 C8.389908,37.56244 13.184677,37.56244 13.184677,37.56244 C15.5820465,34.710938 18.945526,33.106873 22.666824,33.0 C22.666824,33.0 22.666824,33.0 22.666824,33.0 ZM60.989212,55.705505 C60.989212,47.649902 59.092773,35.28119 48.608673,35.28119 C47.39215,35.28119 42.955185,40.235718 35.798813,40.235718 C28.64244,40.235718 24.20546,35.28119 22.988876,35.28119 C12.504837,35.28119 10.608398,47.649902 10.608398,55.705505 C10.608398,61.47992 14.437042,64.93738 20.162125,64.93738 C20.162125,64.93738 51.435486,64.93738 51.435486,64.93738 C57.16057,64.93738 60.989212,61.47992 60.989212,55.705505 C60.989212,55.705505 60.989212,55.705505 60.989212,55.705505 ZM24.348572,10.187439 C24.348572,5.16156 20.233704,1.0625 15.188477,1.0625 C10.143173,1.0625 6.0283127,5.16156 6.0283127,10.187439 C6.0283127,15.213318 10.143173,19.3125 15.188477,19.3125 C20.233704,19.3125 24.348572,15.213318 24.348572,10.187439 C24.348572,10.187439 24.348572,10.187439 24.348572,10.187439 ZM49.539047,23.874939 C49.539047,16.318298 43.384567,10.187439 35.798813,10.187439 C28.213043,10.187439 22.058563,16.318298 22.058563,23.874939 C22.058563,31.43158 28.213043,37.56244 35.798813,37.56244 C43.384567,37.56244 49.539047,31.43158 49.539047,23.874939 C49.539047,23.874939 49.539047,23.874939 49.539047,23.874939 ZM70.13573,31.89502 C70.13573,29.007812 70.242905,19.3125 65.7124,19.3125 C64.96103,19.3125 61.239685,22.342224 56.409134,22.342224 C54.763153,22.342224 53.18875,22.057068 51.650177,21.52246 C51.757538,22.30658 51.829056,23.09076 51.829056,23.874939 C51.829056,27.118591 50.791397,30.3266 48.930725,33.0 C52.652084,33.106873 56.015564,34.710938 58.412933,37.56244 C58.412933,37.56244 63.207703,37.56244 63.207703,37.56244 C66.78589,37.56244 70.13573,35.851562 70.13573,31.89502 C70.13573,31.89502 70.13573,31.89502 70.13573,31.89502 ZM65.569305,10.187439 C65.569305,5.16156 61.454376,1.0625 56.409134,1.0625 C51.363907,1.0625 47.248978,5.16156 47.248978,10.187439 C47.248978,15.213318 51.363907,19.3125 56.409134,19.3125 C61.454376,19.3125 65.569305,15.213318 65.569305,10.187439 C65.569305,10.187439 65.569305,10.187439 65.569305,10.187439 Z"/>
</svg>