<svg xmlns="http://www.w3.org/2000/svg"
 xmlns:xlink="http://www.w3.org/1999/xlink"
 width="9px" height="14px"  viewBox="0 0 9 14">
<path fill-rule="evenodd"  fill="#ffffff"
 d="M2.173462,6.57489 C2.173462,6.57489 6.9903564,1.6762085 6.9903564,1.6762085 C7.1595764,1.5042725 7.414093,1.4524536 7.6349792,1.5458984 C7.855713,1.638794 7.999939,1.8578491 7.999939,2.1011963 C7.999939,2.1011963 5.472595,6.999817 5.472595,6.999817 C5.472595,6.999817 7.999939,11.898499 7.999939,11.898499 C7.999939,12.142212 7.855713,12.360901 7.6349792,12.453918 C7.56192,12.484741 7.4847717,12.499939 7.408661,12.499939 C7.2547607,12.499939 7.1038513,12.438721 6.9903564,12.3237915 C6.9903564,12.3237915 2.173462,7.425232 2.173462,7.425232 C2.063263,7.3132935 1.9999695,7.158386 1.9999695,6.999817 C1.9999695,6.841736 2.063263,6.6870728 2.173462,6.57489 Z"/>
</svg>