<svg xmlns="http://www.w3.org/2000/svg"
 xmlns:xlink="http://www.w3.org/1999/xlink"
 width="9px" height="14px"  viewBox="0 0 9 14">
<path fill-rule="evenodd"  fill="#ffffff"
 d="M7.826477,6.57489 C7.826477,6.57489 3.0095825,1.6762085 3.0095825,1.6762085 C2.840393,1.5042725 2.5858765,1.4524536 2.3649292,1.5458984 C2.144226,1.638794 2.0,1.8578491 2.0,2.1011963 C2.0,2.1011963 4.5272827,6.999817 4.5272827,6.999817 C4.5272827,6.999817 2.0,11.898499 2.0,11.898499 C2.0,12.142212 2.144226,12.360901 2.3649292,12.453918 C2.4380493,12.484741 2.5151367,12.499939 2.5912476,12.499939 C2.7451782,12.499939 2.8961182,12.438721 3.0095825,12.3237915 C3.0095825,12.3237915 7.826477,7.425232 7.826477,7.425232 C7.9367065,7.3132935 8.0,7.158386 8.0,6.999817 C8.0,6.841736 7.9367065,6.6870728 7.826477,6.57489 Z"/>
</svg>