<svg xmlns="http://www.w3.org/2000/svg"
 xmlns:xlink="http://www.w3.org/1999/xlink"
 width="94px" height="94px"  viewBox="0 0 94 94">
<path fill-rule="evenodd"  fill="rgba(255,255,255,0.9)"
 d="M47.499146,1.9994812 C72.62848,1.9994812 92.99939,22.370224 92.99939,47.4993 C92.99939,72.62837 72.62848,92.999344 47.499146,92.999344 C22.370605,92.999344 1.9994507,72.62837 1.9994507,47.4993 C1.9994507,22.370224 22.370605,1.9994812 47.499146,1.9994812 ZM47.499146,11.099396 C67.60266,11.099396 83.89917,27.396301 83.89917,47.4993 C83.89917,67.60251 67.60266,83.89943 47.499146,83.89943 C27.39624,83.89943 11.099243,67.60251 11.099243,47.4993 C11.099243,27.396301 27.39624,11.099396 47.499146,11.099396 ZM29.2995,11.099396 C29.2995,11.099396 56.599426,44.46588 62.666138,83.89943 C62.666138,83.89943 68.73279,77.8327 68.73279,77.8327 C68.73279,77.8327 62.666138,38.399597 35.365906,8.066193 C35.365906,8.066193 29.2995,11.099396 29.2995,11.099396 ZM71.76587,17.165894 C71.76587,17.165894 63.66327,25.53183 47.499146,32.332657 C33.44104,38.247986 14.909912,39.810333 5.032837,38.399597 C5.032837,38.399597 5.032837,44.46588 5.032837,44.46588 C5.032837,44.46588 35.365906,53.566025 80.86603,20.19931 C80.86603,20.19931 71.76587,17.165894 71.76587,17.165894 ZM17.166138,74.799286 C17.166138,74.799286 35.365906,32.332657 86.93268,47.4993 C86.93268,47.4993 86.93268,53.566025 86.93268,53.566025 C86.93268,53.566025 44.46588,38.399597 23.232605,77.8327 C23.232605,77.8327 17.166138,74.799286 17.166138,74.799286 Z"/>
</svg>