<svg xmlns="http://www.w3.org/2000/svg"
 xmlns:xlink="http://www.w3.org/1999/xlink"
 width="106px" height="93px"  viewBox="0 0 106 93">
<path fill-rule="evenodd"  fill="rgba(255,255,255,0.9)"
 d="M11.65564,14.856812 C11.65564,14.856812 95.34314,14.856812 95.34314,14.856812 C100.675964,14.856812 104.99957,19.173767 104.99957,24.499329 C104.99957,24.499329 104.99957,82.356476 104.99957,82.356476 C104.99957,87.68237 100.675964,91.99933 95.34314,91.99933 C95.34314,91.99933 11.65564,91.99933 11.65564,91.99933 C6.322571,91.99933 1.9994507,87.68237 1.9994507,82.356476 C1.9994507,82.356476 1.9994507,24.499329 1.9994507,24.499329 C1.9994507,19.173767 6.322571,14.856812 11.65564,14.856812 ZM37.40564,1.9994278 C37.40564,1.9994278 69.59314,1.9994278 69.59314,1.9994278 C71.370605,1.9994278 72.81183,3.918167 72.81183,6.2850037 C72.81183,6.2850037 72.81183,13.78511 72.81183,13.78511 C72.81183,16.152176 71.370605,18.070908 69.59314,18.070908 C69.59314,18.070908 37.40564,18.070908 37.40564,18.070908 C35.62805,18.070908 34.18689,16.152176 34.18689,13.78511 C34.18689,13.78511 34.18689,6.2850037 34.18689,6.2850037 C34.18689,3.918167 35.62805,1.9994278 37.40564,1.9994278 ZM53.49939,24.499329 C69.49823,24.499329 82.46814,37.45108 82.46814,53.427963 C82.46814,69.40485 69.49823,82.356476 53.49939,82.356476 C37.500244,82.356476 24.53064,69.40485 24.53064,53.427963 C24.53064,37.45108 37.500244,24.499329 53.49939,24.499329 ZM53.49939,34.14238 C64.165344,34.14238 72.81183,42.776733 72.81183,53.427963 C72.81183,64.07918 64.165344,72.713745 53.49939,72.713745 C42.833374,72.713745 34.18689,64.07918 34.18689,53.427963 C34.18689,42.776733 42.833374,34.14238 53.49939,34.14238 ZM53.49939,46.999542 C57.054688,46.999542 59.93683,49.877594 59.93683,53.427963 C59.93683,56.978546 57.054688,59.856598 53.49939,59.856598 C49.94403,59.856598 47.06189,56.978546 47.06189,53.427963 C47.06189,49.877594 49.94403,46.999542 53.49939,46.999542 ZM40.62439,8.427841 C40.62439,8.427841 66.37439,8.427841 66.37439,8.427841 C66.37439,8.427841 66.37439,11.642487 66.37439,11.642487 C66.37439,11.642487 40.62439,11.642487 40.62439,11.642487 C40.62439,11.642487 40.62439,8.427841 40.62439,8.427841 Z"/>
</svg>