<svg xmlns="http://www.w3.org/2000/svg"
 xmlns:xlink="http://www.w3.org/1999/xlink"
 width="114px" height="107px"  viewBox="0 0 114 107">
<path fill-rule="evenodd"  fill="rgba(255,255,255,0.9)"
 d="M112.99933,12.141342 C112.99933,12.141342 102.87427,22.282684 102.87427,22.282684 C102.87427,22.282684 102.87427,21.363602 102.87427,23.97322 C102.87427,25.826416 102.576416,27.597076 102.14508,29.31668 C101.90924,43.268295 97.47229,61.768936 79.24933,76.37167 C43.40332,105.0952 4.9993896,79.752304 4.9993896,79.752304 C35.37439,79.752304 35.37439,69.61041 35.37439,69.61041 C28.62439,69.61041 15.124451,56.08844 15.124451,56.08844 C18.49945,59.46884 25.24939,56.08844 25.24939,56.08844 C8.3741455,45.946655 8.3741455,35.8051 8.3741455,35.8051 C11.74939,39.185394 18.49945,35.8051 18.49945,35.8051 C1.6244507,22.282684 11.74939,5.3798676 11.74939,5.3798676 C15.124451,22.282684 58.99939,29.043839 58.99939,29.043839 C58.99939,29.043839 59.557495,28.764252 59.557495,28.764252 C59.213257,27.218033 58.99939,23.933105 58.99939,22.282684 C58.99939,10.147247 68.82092,1.9994507 80.93677,1.9994507 C87.60535,1.9994507 93.506165,5.0433655 97.5293,9.747314 C97.5293,9.747314 99.49939,8.760712 99.49939,8.760712 C99.49939,8.760712 109.62433,1.9994507 109.62433,1.9994507 C109.62433,1.9994507 102.87427,15.521637 102.87427,15.521637 C102.87427,15.521637 112.99933,12.141342 112.99933,12.141342 Z"/>
</svg>