<svg xmlns="http://www.w3.org/2000/svg"
 xmlns:xlink="http://www.w3.org/1999/xlink"
 width="22px" height="22px"  viewBox="0 0 22 22">
<path fill-rule="evenodd"  fill="#e67624"
 d="M11.0,1.9986572 C6.0288086,1.9986572 1.9986572,6.0288086 1.9986572,11.0 C1.9986572,15.971436 6.0288086,20.00122 11.0,20.00122 C15.971497,20.00122 20.00122,15.971436 20.00122,11.0 C20.00122,6.0288086 15.971497,1.9986572 11.0,1.9986572 ZM15.660217,10.318848 C15.660217,10.318848 11.579956,14.39917 11.579956,14.39917 C10.796509,15.183716 9.724609,15.38208 9.185791,14.84314 C9.178711,14.8359375 9.174683,14.825806 9.167725,14.8186035 C9.043945,14.760132 8.923462,14.690674 8.821533,14.588745 C8.821533,14.588745 6.354004,12.121216 6.354004,12.121216 C5.879883,11.646973 5.879883,10.879028 6.354004,10.405029 C6.828064,9.930786 7.5964355,9.930786 8.070496,10.405029 C8.070496,10.405029 9.871277,12.205688 9.871277,12.205688 C9.871277,12.205688 13.709351,8.368042 13.709351,8.368042 C14.493164,7.5842285 15.563782,7.3862305 16.103394,7.9248047 C16.642273,8.463623 16.443237,9.536133 15.660217,10.318848 Z"/>
</svg>