<svg xmlns="http://www.w3.org/2000/svg"
 xmlns:xlink="http://www.w3.org/1999/xlink"
 width="43px" height="43px"  viewBox="0 0 43 43">
<path fill-rule="evenodd"  fill="#ffffff"
 d="M21.939331,1.9997559 C33.018433,1.9997559 41.999695,10.953857 41.999695,21.999634 C41.999695,33.04541 33.018433,41.999756 21.939331,41.999756 C10.860596,41.999756 1.8792725,33.04541 1.8792725,21.999634 C1.8792725,10.953857 10.860596,1.9997559 21.939331,1.9997559 ZM21.939331,5.999634 C30.802673,5.999634 37.987488,13.163208 37.987488,21.999634 C37.987488,30.836304 30.802673,37.999634 21.939331,37.999634 C13.076294,37.999634 5.8911743,30.836304 5.8911743,21.999634 C5.8911743,13.163208 13.076294,5.999634 21.939331,5.999634 ZM13.915405,5.999634 C13.915405,5.999634 25.951538,20.666382 28.62622,37.999634 C28.62622,37.999634 31.300842,35.333008 31.300842,35.333008 C31.300842,35.333008 28.62622,17.999756 16.589966,4.666382 C16.589966,4.666382 13.915405,5.999634 13.915405,5.999634 ZM32.638123,8.66626 C32.638123,8.66626 29.065796,12.343628 21.939331,15.333008 C15.741333,17.933105 7.571228,18.619873 3.2165527,17.999756 C3.2165527,17.999756 3.2165527,20.666382 3.2165527,20.666382 C3.2165527,20.666382 16.589966,24.666382 36.65027,9.999634 C36.65027,9.999634 32.638123,8.66626 32.638123,8.66626 ZM8.565918,33.999634 C8.565918,33.999634 16.589966,15.333008 39.325012,21.999634 C39.325012,21.999634 39.325012,24.666382 39.325012,24.666382 C39.325012,24.666382 20.60199,17.999756 11.2404785,35.333008 C11.2404785,35.333008 8.565918,33.999634 8.565918,33.999634 Z"/>
</svg>