<svg xmlns="http://www.w3.org/2000/svg"
 xmlns:xlink="http://www.w3.org/1999/xlink"
 width="47px" height="44px"  viewBox="0 0 47 44">
<path fill-rule="evenodd"  fill="#ffffff"
 d="M45.7948,5.666504 C45.7948,5.666504 41.782776,9.666382 41.782776,9.666382 C41.782776,9.666382 41.782776,9.303955 41.782776,10.33313 C41.782776,11.064087 41.664795,11.762451 41.493835,12.440552 C41.40039,17.94336 39.642273,25.240234 32.421326,30.999756 C18.217285,42.328735 2.9997559,32.33313 2.9997559,32.33313 C15.035889,32.33313 15.035889,28.333008 15.035889,28.333008 C12.361145,28.333008 7.01178,22.999756 7.01178,22.999756 C8.34906,24.333008 11.023865,22.999756 11.023865,22.999756 C4.337036,18.999634 4.337036,14.999756 4.337036,14.999756 C5.6744385,16.333008 8.34906,14.999756 8.34906,14.999756 C1.6623535,9.666382 5.6744385,2.9996338 5.6744385,2.9996338 C7.01178,9.666382 24.397278,12.33313 24.397278,12.33313 C24.397278,12.33313 24.61847,12.222778 24.61847,12.222778 C24.482056,11.613037 24.397278,10.317261 24.397278,9.666382 C24.397278,4.880005 28.289124,1.6663818 33.089966,1.6663818 C35.73242,1.6663818 38.07068,2.8669434 39.664856,4.72229 C39.664856,4.72229 40.445496,4.33313 40.445496,4.33313 C40.445496,4.33313 44.45752,1.6663818 44.45752,1.6663818 C44.45752,1.6663818 41.782776,6.999756 41.782776,6.999756 C41.782776,6.999756 45.7948,5.666504 45.7948,5.666504 Z"/>
</svg>